<?xml version="1.0" encoding="UTF-8" standalone="no"?>
<!-- Created with Inkscape (http://www.inkscape.org/) -->

<svg
   version="1.1"
   id="svg1"
   width="900"
   height="900"
   viewBox="0 0 900 900"
   xmlns="http://www.w3.org/2000/svg"
   xmlns:svg="http://www.w3.org/2000/svg">
  <defs
     id="defs1" />
  <g
     id="g1"
     style="display:inline">
    <path
       style="fill:#000000"
       d="M 436.59513,860.64449 C 432.96781,858.79896 400.9,836.21311 365.33333,810.45372 263.38485,736.61686 215.97072,702.66667 214.8002,702.66667 c -0.59529,0 -5.81886,3.61736 -11.60794,8.03857 -19.59169,14.9625 -24.12762,17.64797 -30.90922,18.29959 -4.00297,0.38464 -8.17959,-0.14959 -11.27237,-1.44183 -5.55454,-2.32084 -58.0203,-39.1174 -64.690372,-45.37023 -2.390503,-2.24097 -4.937157,-6.2011 -5.659231,-8.80029 -1.70299,-6.13013 -1.724836,-66.02547 -0.02624,-71.94812 1.895427,-6.60897 4.807864,-9.22166 31.698503,-28.43608 l 24.33334,-17.38712 V 463.35662 371.09208 L 120.45798,352.54604 C 98.427358,336.95653 93.862115,333.14978 91.820592,328.66667 89.70894,324.02955 89.389047,319.50416 89.370052,294 c -0.01202,-16.13333 0.567387,-31.45432 1.287561,-34.04663 1.85374,-6.67266 7.716931,-11.73769 38.472057,-33.2348 C 157.96969,206.56007 162.56061,204 169.87038,204 c 6.93114,0 9.46628,1.33383 27.44829,14.44154 l 16.52617,12.0465 9.41091,-6.67411 c 5.17601,-3.67076 22.83201,-16.0682 39.23556,-27.54986 l 29.82464,-20.87576 -0.80629,-7.71412 c -1.19551,-11.43804 1.17758,-20.44588 6.98152,-26.50062 4.0396,-4.21416 81.88555,-58.949388 126.48411,-88.933811 14.41274,-9.689948 22.5972,-12.255563 31.03316,-9.728089 4.88395,1.463266 46.98404,29.482061 112.81705,75.08292 32.50169,22.5131 31.73187,21.89846 35.23592,28.13308 2.61609,4.65471 3.07731,7.3442 3.02894,17.66253 l -0.0571,12.17173 33.4625,23.21904 c 18.40437,12.77046 36.02213,25.16526 39.15057,27.54398 l 5.68807,4.32495 15.08794,-11.1641 C 718.79424,205.89182 722.32875,204 729.35478,204 c 6.7902,0 7.3674,0.30424 28.64522,15.0988 29.96181,20.83257 39.88316,27.96714 43.7857,31.48686 7.31037,6.59325 7.54763,7.93706 7.54763,42.74767 0,36.6539 -0.13606,37.23571 -10.33506,44.19407 -3.48238,2.37589 -15.4816,10.85086 -26.66494,18.83328 L 752,370.87417 l 0.0141,92.89625 0.0141,92.89625 25.6526,18.07974 c 14.73065,10.38205 26.92988,19.97472 28.65259,22.53051 2.92511,4.33965 3,5.33968 3,40.05641 0,34.76061 -0.0715,35.71175 -3.0126,40.07605 -2.86984,4.25856 -33.49346,27.20399 -58.79998,44.0572 -9.86092,6.56701 -12.76546,7.86675 -17.57987,7.86675 -8.47144,0 -11.64747,-1.62342 -28.86736,-14.75549 -8.59042,-6.55115 -16.02456,-11.91117 -16.52032,-11.91117 -0.49576,0 -3.97304,2.20914 -7.72729,4.9092 -22.84581,16.43076 -109.77128,78.82655 -157.56695,113.1028 -30.84091,22.11729 -58.08044,40.91257 -60.5323,41.76729 -7.1681,2.49881 -14.91962,1.86785 -22.13153,-1.80147 z m 20.47423,-87.84132 c 1.98198,-1.02492 4.80219,-3.1877 6.26712,-4.80617 2.60062,-2.87319 2.67926,-5.33898 3.33019,-104.41339 l 0.66666,-101.47072 10.36172,-1.60186 c 53.9505,-8.34046 102.85317,-50.51128 120.20074,-103.65413 10.43372,-31.96282 9.98892,-75.98636 -1.06335,-105.24408 C 576.26796,297.17421 531.58948,261.00622 473,251.36833 l -5,-0.8225 V 195.2067 c 0,-60.85168 0.0921,-60.11129 -8.21247,-66.02466 -3.01047,-2.14364 -6.13367,-3.02819 -10.69204,-3.02819 -7.54001,0 -12.53758,3.06766 -16.19488,9.94093 -2.26938,4.26493 -2.39485,8.26304 -1.86868,59.54937 l 0.56403,54.97748 -4.79798,0.83914 c -22.5383,3.94182 -34.25072,7.54208 -49.3064,15.1562 -32.54533,16.45918 -60.78755,47.31534 -73.51528,80.31945 -6.68525,17.33543 -9.42438,30.81817 -10.23855,50.39691 -1.2731,30.61495 3.26964,52.83865 16.25152,79.50469 21.97734,45.14359 62.1473,75.34561 111.2397,83.63623 l 10.10436,1.7064 0.66667,100.82269 0.66667,100.82269 4,4.22552 c 6.38395,6.74388 13.39333,8.37631 20.40269,4.75162 z M 436.66667,503.85993 c -40.78494,-5.78915 -72.33885,-33.64428 -82.91232,-73.19326 -3.08387,-11.53492 -3.08136,-37.44083 0.005,-48.79867 5.21472,-19.19189 14.00104,-33.62161 29.14704,-47.868 11.70811,-11.0127 21.31166,-16.98525 34.46925,-21.43678 41.65344,-14.09235 89.71716,1.91561 113.21359,37.7066 19.55214,29.78286 22.30859,67.85043 7.12465,98.39405 -11.82294,23.7827 -32.79736,42.6484 -56.30437,50.64365 -13.91655,4.73332 -31.12954,6.48469 -44.74257,4.55241 z m 33.12521,-51.57494 c 20.46011,-9.59468 31.67555,-30.75525 28.59611,-53.9533 -2.06982,-15.59244 -14.45262,-32.22946 -28.70939,-38.57279 -9.76814,-4.34618 -28.02449,-4.88635 -38.00748,-1.12457 -10.08774,3.80126 -21.271,14.07627 -26.75432,24.58149 -4.01101,7.68448 -4.23738,8.90104 -4.24358,22.80524 -0.006,13.91502 0.22399,15.1564 4.37578,23.59648 4.35608,8.8554 12.81583,17.84067 20.5912,21.87033 13.16669,6.82377 30.62797,7.13902 44.15168,0.79712 z M 351.9975,715 c 8.60889,-4.52969 14.17872,-11.98011 16.20303,-21.67378 2.10532,-10.08168 -0.94851,-20.6376 -8.26758,-28.57786 l -5.26628,-5.71324 v -45.00776 -45.00775 l -5.17647,-5.17647 c -5.81781,-5.81781 -11.78636,-6.81554 -18.86718,-3.1539 -7.7326,3.99868 -7.95635,5.51925 -7.95635,54.06853 v 44.22352 l -4.1754,4.75552 c -6.35431,7.23716 -9.09531,14.43573 -9.12865,23.97418 -0.0621,17.76136 12.05519,30.75249 28.81846,30.89675 4.97426,0.0428 8.75431,-0.94424 13.81642,-3.60774 z m 215.60444,1.05398 c 8.70491,-5.3077 8.5066,-3.34403 8.09945,-80.20175 l -0.36806,-69.47921 -4.6163,-3.85317 c -8.09532,-6.75709 -20.22117,-4.47252 -24.53724,4.62292 C 544.25145,571.20646 544,579.52631 544,639.26772 c 0,73.73731 -0.0625,73.10889 7.68343,77.31176 5.05549,2.74308 10.87281,2.55104 15.91851,-0.5255 z M 184.07189,659.44402 c 13.89824,-9.19742 14.25498,-32.4486 0.657,-42.82029 -11.61874,-8.86204 -29.27728,-4.37237 -36.34567,9.24086 -3.1156,6.00041 -2.77094,17.56905 0.72667,24.3915 2.9184,5.69262 9.41283,11.56257 14.22344,12.85576 5.91516,1.59011 15.30193,-0.07 20.73856,-3.66783 z m 556.77553,-2.81279 c 15.80647,-9.26321 17.02257,-32.96731 2.26868,-44.22065 -4.33402,-3.30572 -6.03758,-3.74391 -14.55522,-3.74391 -8.80308,0 -10.09477,0.36216 -14.77045,4.14136 -6.71432,5.42696 -9.70593,10.75102 -10.6847,19.01514 -1.11172,9.38682 4.03547,20.04454 11.98053,24.80675 7.72685,4.63142 17.8596,4.63193 25.76116,10e-4 z M 247.74699,628.86285 c 1.69418,-0.94012 4.24023,-3.46886 5.65788,-5.61942 2.42058,-3.67196 2.57809,-6.67977 2.58634,-49.38629 l 0.009,-45.47619 6.50587,-6.52381 c 5.33087,-5.34557 6.81404,-7.90845 8.21217,-14.19047 2.64833,-11.89933 0.20027,-20.6978 -8.1772,-29.38927 L 256,471.49139 v -62.47857 c 0,-68.67983 0.21326,-66.78596 -8.25474,-73.30762 -2.42656,-1.86883 -7.32487,-6.16702 -10.88513,-9.55153 -8.29912,-7.88946 -13.59647,-8.35067 -20.18936,-1.75777 -9.32137,9.32137 -8.7897,21.08517 1.3566,30.0163 l 5.97263,5.25732 -4e-5,56.49858 -4e-5,56.49857 -4.51766,3.60464 c -2.48472,1.98256 -5.7847,6.22199 -7.3333,9.42097 -6.0454,12.48815 -1.91469,33.41772 7.7185,39.10819 L 224,527.24162 v 45.11207 c 0,48.92782 0.10736,49.72415 7.48651,55.52858 4.02239,3.16402 11.51186,3.61566 16.26048,0.98058 z m 419.90422,-2.47672 c 7.14636,-6.67408 7.20227,-7.1158 6.91511,-54.63638 l -0.26625,-44.06184 4.22025,-3.30285 c 7.03679,-5.50711 10.08454,-12.87676 10.08454,-24.38506 0,-11.33306 -2.9135,-18.55117 -9.84067,-24.38 l -4.01942,-3.38212 -0.12119,-56.1255 -0.12119,-56.1255 6.52031,-6.35098 c 3.94792,-3.8454 6.84804,-7.98959 7.351,-10.50438 C 690.42814,332.85928 681.84515,320 672.93444,320 c -3.82057,0 -6.3199,1.47003 -13.8,8.11675 -5.02394,4.46422 -10.78444,9.87368 -12.80111,12.02104 l -3.66666,3.90428 v 64.39618 64.39617 l -4.17334,3.91613 c -12.68362,11.9019 -13.21273,33.86339 -1.10748,45.96863 L 642.66667,528 v 45.39955 c 0,38.58186 0.3133,46.0054 2.08628,49.43398 4.09383,7.91658 16.21229,9.79673 22.89826,3.5526 z m -486.236,-315.80748 c 9.78875,-4.89851 15.47685,-19.12893 11.93537,-29.85972 -6.23367,-18.88821 -28.28874,-24.0585 -40.97793,-9.60631 -13.02885,14.83904 -5.91938,38.77911 12.54098,42.22987 6.035,1.12811 10.07716,0.45109 16.50158,-2.76384 z m 561.77037,-1.70889 c 7.25941,-5.53702 10.55663,-12.98149 9.88178,-22.31111 -2.12274,-29.34654 -41.47156,-32.42485 -47.91473,-3.74843 -2.37948,10.5903 3.65638,22.95494 14.1807,29.04956 1.49277,0.86446 6.26466,1.35864 10.83995,1.12258 6.47426,-0.33403 9.17918,-1.18894 13.0123,-4.1126 z"
       id="path3451" />
    <path
       style="fill:#3fb7bd;fill-opacity:0.996078;stroke-width:0.719424"
       d="m 445.55104,773.50642 c -3.32541,-1.22604 -8.36321,-4.96497 -10.54641,-7.82728 l -1.89328,-2.48224 -0.71779,-93.46895 c -0.39478,-51.40793 -0.72253,-96.7873 -0.72834,-100.84306 -0.0102,-7.1626 -0.057,-7.37428 -1.62925,-7.38035 -0.89029,-0.003 -6.47482,-0.98867 -12.41007,-2.1894 -47.82017,-9.67424 -85.10384,-38.3575 -107.02461,-82.33672 -7.86546,-15.78032 -13.23827,-32.75987 -15.26969,-48.25641 -1.42249,-10.85141 -1.42951,-34.6503 -0.0136,-46.00968 4.00925,-32.16391 17.91485,-60.53796 41.72579,-85.14042 12.59265,-13.01126 25.64176,-22.78551 40.73561,-30.51244 13.504,-6.91304 22.92009,-10.00919 42.00473,-13.81177 l 11.51079,-2.29351 v -54.9735 -54.9735 l 1.65728,-3.59712 c 3.41567,-7.41372 8.4669,-10.71881 16.32834,-10.68385 7.34902,0.0327 13.64091,3.63067 15.80435,9.03763 2.06862,5.17001 2.49193,16.30481 2.51674,66.20086 l 0.0242,48.7273 1.6187,0.33822 c 0.89029,0.18602 5.82734,1.18905 10.97123,2.22895 48.54815,9.81463 87.42048,39.27793 109.18925,82.76004 11.33845,22.64803 15.22057,40.33074 15.23116,69.37646 0.007,18.57808 -0.98838,27.628 -4.62792,42.08633 -11.71283,46.53008 -47.80365,86.81853 -93.98327,104.91426 -8.41032,3.29563 -20.76191,6.53754 -30.93855,8.12041 l -8.00704,1.24542 -0.43087,66.60096 c -0.61691,95.35782 -1.39868,134.28537 -2.76077,137.47061 -1.17595,2.74994 -5.39927,6.04903 -9.71371,7.58796 -3.3113,1.18112 -5.58874,1.20351 -8.62307,0.0848 z m 26.39141,-271.20926 c 18.14084,-4.27665 32.71405,-12.46538 46.21961,-25.97094 14.09085,-14.09085 23.6024,-31.36654 27.68785,-50.28905 1.83142,-8.48252 1.78682,-31.48972 -0.0776,-40.04663 -8.9528,-41.08901 -39.14304,-70.30625 -79.94495,-77.36839 -9.49035,-1.64262 -25.10029,-1.67046 -34.17266,-0.0609 -20.25027,3.59257 -35.44062,11.79718 -51.59826,27.86925 -14.59015,14.51288 -24.02194,31.44567 -27.62999,49.60386 -1.46535,7.37464 -1.25886,34.11556 0.32073,41.53573 7.78121,36.55239 36.1516,65.40336 73.26312,74.5042 10.26468,2.5172 10.13531,2.50564 25.06886,2.24025 11.08111,-0.19693 14.57403,-0.53467 20.86331,-2.01735 z"
       id="path3452" />
    <path
       style="fill:#3fb7bd;fill-opacity:0.996078;stroke-width:0.719424"
       d="m 555.0209,717.3745 c -4.00221,-1.29821 -6.70567,-3.19713 -7.93433,-5.5731 -2.22821,-4.30887 -2.56457,-15.55877 -2.34257,-78.34816 0.20534,-58.07633 0.30636,-62.42165 1.51336,-65.0981 4.82006,-10.6882 18.10743,-12.28297 26.79425,-3.21588 l 1.93331,2.01793 0.0975,67.50054 c 0.10269,71.11551 0.0105,73.4039 -3.11591,77.37854 -1.82144,2.31558 -7.77468,5.44844 -11.21603,5.90238 -1.56023,0.2058 -4.13853,-0.0481 -5.72955,-0.56415 z"
       id="path3453" />
    <path
       style="fill:#3fb7bd;fill-opacity:0.996078;stroke-width:0.719424"
       d="m 653.06409,628.83242 c -4.3979,-1.56962 -6.34728,-3.22206 -7.9875,-6.77079 -1.52876,-3.30759 -1.55468,-4.0173 -1.77558,-48.61839 l -0.22417,-45.26181 -4.36941,-4.73819 c -12.92795,-14.01911 -12.90628,-32.40221 0.0545,-46.25736 l 4.40351,-4.70736 v -64.39491 -64.3949 l 6.49198,-6.17796 c 8.77853,-8.35392 16.07008,-14.5743 18.64465,-15.90566 7.81,-4.03871 18.09919,4.39674 19.83747,16.26348 0.72045,4.91831 -1.36371,8.95607 -8.28058,16.04249 l -5.75827,5.8994 v 56.01979 56.01979 l 4.57327,4.44025 c 2.62912,2.55265 5.3768,6.08939 6.46345,8.31958 4.00104,8.21155 4.03306,22.53431 0.0685,30.65026 -1.11475,2.28204 -3.632,5.39916 -6.43227,7.9651 l -4.60077,4.21577 -0.25214,44.19317 c -0.19089,33.45589 -0.47637,44.87149 -1.17502,46.98505 -1.24223,3.758 -6.8591,9.2469 -10.59901,10.35753 -3.71127,1.10212 -5.67782,1.07088 -9.08266,-0.14433 z"
       id="path3454" />
    <path
       style="fill:#3fb7bd;fill-opacity:0.996078;stroke-width:0.719424"
       d="m 721.22302,312.10489 c -5.30693,-1.45973 -13.04712,-10.66492 -15.20283,-18.08031 -4.78844,-16.47168 10.48284,-33.70667 26.87308,-30.32865 8.05941,1.66104 13.41627,5.68832 16.85358,12.67049 1.95775,3.97675 2.38289,5.75206 2.62282,10.95241 0.38119,8.26214 -1.41526,13.26838 -6.617,18.43987 -5.27003,5.23938 -8.04838,6.36215 -16.25627,6.5694 -3.75899,0.0949 -7.48201,-0.006 -8.27338,-0.22321 z"
       id="path3455" />
    <path
       style="fill:#3fb7bd;fill-opacity:0.996078;stroke-width:0.719424"
       d="m 723.02158,659.07953 c -8.06449,-1.80927 -13.53522,-6.27953 -17.16894,-14.02916 -1.63135,-3.47918 -1.89581,-4.99655 -1.89581,-10.87771 0,-5.88939 0.26345,-7.39644 1.90501,-10.89781 2.06085,-4.39568 5.98994,-8.74246 10.74938,-11.89211 2.66086,-1.76087 3.81386,-2.01956 10.1328,-2.27336 10.017,-0.40233 12.82158,0.51067 18.28297,5.95181 5.71349,5.69232 7.73607,10.59493 7.73607,18.75176 0,7.96621 -2.04613,13.06724 -7.38177,18.40288 -6.1334,6.13341 -14.35949,8.65854 -22.35971,6.8637 z"
       id="path3456" />
    <path
       style="fill:#3fb7bd;fill-opacity:0.996078;stroke-width:0.719424"
       d="m 330.95269,717.19202 c -5.46291,-1.46801 -9.27962,-3.87406 -13.53995,-8.53554 -5.5878,-6.11394 -6.9492,-10.27309 -6.96672,-21.28372 -0.0143,-8.99429 -0.004,-9.05138 2.66194,-14.38849 1.47198,-2.9471 4.30471,-7.24609 6.29497,-9.55331 l 3.61865,-4.19494 0.0314,-37.89139 c 0.0448,-54.12277 0.30289,-56.09407 7.87568,-60.15205 7.07906,-3.7934 12.23274,-2.68316 19.25124,4.14726 l 3.77697,3.67576 v 44.83896 44.83897 l 4.63662,5.31642 c 2.55014,2.92403 5.26623,6.55252 6.03575,8.06331 9.16538,17.99421 0.80125,38.36698 -18.38348,44.77724 -5.18174,1.7314 -9.74193,1.83323 -15.29303,0.34152 z"
       id="path3457" />
    <path
       style="fill:#3fb7bd;fill-opacity:0.996078;stroke-width:0.719424"
       d="m 235.2518,629.35963 c -2.80264,-0.99444 -6.72137,-4.36066 -8.00463,-6.87605 -2.36129,-4.62852 -2.77558,-12.81556 -2.78128,-54.96254 l -0.005,-40.39263 -3.51452,-2.25526 c -5.93221,-3.80669 -9.6418,-10.76323 -10.84367,-20.33499 -1.41698,-11.28483 1.89515,-20.73187 9.72274,-27.73172 l 4.63465,-4.14457 4e-4,-56.60527 4e-4,-56.60527 -4.25846,-3.7039 c -10.30628,-8.96413 -12.41125,-18.04466 -6.29092,-27.13809 5.2267,-7.7657 11.7217,-10.10322 17.38811,-6.25789 2.4336,1.65149 10.5889,8.63508 18.75691,16.06202 5.05248,4.59408 4.85978,1.93486 5.14783,71.04034 l 0.2583,61.97178 5.68264,6.2211 c 6.99781,7.66089 9.42708,12.34973 9.91237,19.13232 0.41053,5.73771 -0.76201,12.67707 -2.85092,16.87236 -0.79291,1.59246 -3.98688,5.48532 -7.09769,8.65079 l -5.65604,5.75539 -0.20829,45.68346 c -0.18706,41.02531 -0.33041,45.90352 -1.40591,47.84172 -1.35998,2.45088 -5.22837,6.26795 -7.56804,7.46764 -1.58302,0.8117 -9.0146,1.02028 -11.01852,0.30926 z"
       id="path3458" />
    <path
       style="fill:#3fb7bd;fill-opacity:0.996078;stroke-width:0.719424"
       d="m 160.85598,311.56455 c -5.42849,-2.2794 -9.25672,-6.03017 -12.15511,-11.90913 -2.04318,-4.14428 -2.29712,-5.3409 -2.29013,-10.79137 0.007,-5.34838 0.2908,-6.72665 2.22629,-10.8065 7.55505,-15.92536 25.77062,-19.66768 37.69417,-7.74412 5.95477,5.95477 8.67661,14.14009 7.20774,21.6757 -1.07519,5.51597 -4.48736,12.04431 -7.82848,14.97785 -6.86191,6.02483 -16.9925,7.89879 -24.85448,4.59757 z"
       id="path3459" />
    <path
       style="fill:#3fb7bd;fill-opacity:0.996078;stroke-width:0.719424"
       d="m 164.88075,662.8891 c -6.03833,-1.16689 -12.42252,-6.89155 -15.83814,-14.20194 -1.68157,-3.59905 -1.90837,-4.97795 -1.91396,-11.6368 -0.006,-6.60911 0.21451,-7.98628 1.75941,-11.01032 2.19953,-4.30546 7.57252,-9.4051 12.07672,-11.46233 2.68559,-1.2266 4.81962,-1.56923 9.89853,-1.58927 5.64948,-0.0223 6.93916,0.21867 10.11759,1.89035 14.04179,7.38524 17.71228,28.25586 7.05414,40.11028 -1.83739,2.04361 -4.51206,4.31325 -5.94371,5.04362 -5.06458,2.58376 -12.35779,3.7942 -17.21058,2.85641 z"
       id="path3460" />
    <path
       style="fill:#343f45;fill-opacity:0.996078;stroke-width:0.719424"
       d="m 443.52518,862.65777 c -1.97842,-0.48892 -4.73022,-1.47518 -6.11511,-2.19173 -5.44115,-2.8151 -39.70126,-27.14777 -121.22302,-86.09654 -46.91385,-33.92361 -88.94995,-63.99725 -96.08947,-68.74472 -4.26697,-2.83733 -5.2498,-3.21923 -6.64682,-2.5827 -0.90169,0.41083 -6.15849,4.11947 -11.68179,8.2414 -20.37837,15.20801 -23.92444,17.11615 -31.82805,17.12676 -7.81612,0.0105 -8.65436,-0.43135 -33.9697,-17.90531 -21.56545,-14.8856 -36.777749,-26.2048 -40.184188,-29.90035 -5.730541,-6.2169 -5.499262,-4.41543 -5.499262,-42.8348 0,-31.0784 0.11628,-34.47395 1.284182,-37.50007 2.251753,-5.83448 8.196378,-10.69616 45.658268,-37.34054 l 9.53237,-6.77981 -0.009,-92.82289 -0.009,-92.82287 -14.85262,-10.43166 c -21.9249,-15.39883 -34.256178,-24.71139 -37.061488,-27.98876 -4.308575,-5.0336 -4.412147,-5.78591 -4.714079,-34.24145 -0.328698,-30.9781 0.187013,-37.95585 3.117808,-42.18498 3.719004,-5.36653 20.226089,-17.91313 49.865749,-37.90166 16.81542,-11.34005 20.3944,-13.07751 26.93982,-13.07826 7.15268,-8.3e-4 8.71365,0.85401 30.54177,16.72564 6.45273,4.6919 12.17923,8.70226 12.72555,8.9119 0.56396,0.21641 14.4619,-9.07692 32.15265,-21.49997 17.13764,-12.03462 34.80378,-24.43007 39.2581,-27.54544 l 8.09876,-5.66431 -0.51775,-3.62966 c -0.9009,-6.31582 -0.57631,-15.6321 0.69045,-19.81672 1.96102,-6.47808 4.75738,-10.0674 12.127,-15.56586 25.62971,-19.12229 118.61024,-83.631803 128.81528,-89.371506 8.36345,-4.703925 15.94596,-6.215723 21.53698,-4.294038 5.16604,1.775617 37.55298,23.033268 88.4167,58.033624 56.26685,38.71836 56.34795,38.77983 60.10248,45.55796 2.09808,3.78773 2.13104,4.01826 2.36484,16.54086 l 0.23709,12.69959 26.74133,18.58225 c 14.70772,10.22025 32.45574,22.66723 39.44005,27.65998 l 12.69874,9.07772 10.68256,-7.89631 c 13.18327,-9.74478 23.56973,-16.59908 26.7971,-17.68412 4.19382,-1.40995 10.79457,-1.01125 14.8207,0.8952 6.29903,2.9827 57.31364,38.81214 63.59472,44.66491 7.03888,6.55885 6.87456,5.64743 7.13665,39.58895 0.23446,30.36598 -0.12439,35.83992 -2.63487,40.19292 -0.65451,1.13489 -6.20801,5.62541 -12.3411,9.97892 -6.13309,4.35351 -18.03058,12.80564 -26.43885,18.78251 l -15.28777,10.86702 v 93.2728 93.2728 l 18.88489,13.37898 c 22.65837,16.05229 34.15088,25.12735 36.12671,28.52743 1.41826,2.44062 1.46322,3.62319 1.46322,38.48921 0,35.91155 -0.003,35.97548 -1.59755,38.53989 -2.55866,4.11403 -23.66271,20.51153 -48.95572,38.03778 -20.50042,14.20533 -24.80398,16.11025 -32.69512,14.47205 -5.14452,-1.068 -9.83071,-3.92318 -25.02499,-15.24712 -6.92446,-5.16064 -13.29923,-9.72137 -14.16616,-10.13496 -1.23476,-0.58907 -2.10347,-0.4409 -4.01002,0.684 -1.33858,0.78979 -41.42065,29.41557 -89.07125,63.61282 -89.70116,64.37561 -109.15058,78.19691 -124.40725,88.40727 -11.65361,7.79906 -16.10014,9.03093 -24.82014,6.87597 z m 14.28234,-89.90655 c 5.7507,-3.39115 7.03671,-5.3982 7.74532,-12.08821 0.55903,-5.27784 1.99854,-131.62828 2.05284,-180.18456 l 0.0202,-18.08271 5.93525,-0.85332 c 22.6272,-3.25316 43.05139,-11.0368 62.09758,-23.66533 34.15836,-22.64862 58.22156,-57.13941 66.23398,-94.93596 4.8927,-23.08009 5.09342,-49.33142 0.55112,-72.07782 -7.53202,-37.71796 -31.51513,-72.86271 -65.03376,-95.3002 -8.74999,-5.85728 -26.10436,-14.17012 -37.41007,-17.91964 -5.34173,-1.77157 -14.2446,-4.09349 -19.78417,-5.15982 -5.53957,-1.06633 -10.45158,-2.04161 -10.91556,-2.16728 -0.63246,-0.1713 -0.91587,-13.79032 -1.13225,-54.40913 -0.32006,-60.08301 -0.27749,-59.526 -4.91503,-64.31071 -3.78387,-3.90397 -7.96015,-5.57785 -13.90767,-5.5743 -8.5579,0.005 -13.65395,3.26027 -17.26486,11.02813 -1.49281,3.21135 -1.50294,3.68186 -1.25908,58.45324 l 0.24584,55.21582 h -1.49372 c -3.71394,0 -24.29966,4.71459 -32.78645,7.50883 -43.72579,14.39653 -81.28006,52.14905 -95.98517,96.49189 -5.93191,17.8875 -7.62193,31.41508 -7.07456,56.62749 0.41465,19.09927 1.66741,27.39902 6.33495,41.97013 18.59682,58.05547 63.05659,97.47425 121.25882,107.51012 l 9.382,1.61775 0.47579,35.62208 c 0.26169,19.59213 0.47617,49.73251 0.47662,66.97862 4.6e-4,17.2461 0.2151,46.64832 0.47697,65.33826 l 0.47613,33.98174 3.74436,3.70619 c 2.05941,2.03834 4.35377,4.04964 5.09858,4.46949 5.43742,3.06511 11.38398,3.14116 16.35598,0.20921 z M 350.80235,715.90329 c 11.67864,-5.54615 18.19545,-15.99814 18.24481,-29.26192 0.0325,-8.74541 -2.6919,-15.10725 -10.06017,-23.49138 l -4.28572,-4.87661 -0.0125,-45.03952 -0.0125,-45.03954 -3.81871,-3.61157 c -5.03543,-4.7623 -7.94098,-6.21611 -12.46945,-6.23916 -5.12314,-0.0261 -11.48045,3.24429 -13.35487,6.8701 -2.15217,4.16306 -2.70661,15.62378 -2.71937,56.21085 l -0.0117,37.25188 -3.93893,4.64317 c -7.25108,8.54751 -9.37594,14.91773 -8.89665,26.67161 0.2501,6.13343 0.60615,7.80341 2.54485,11.93658 7.08128,15.09667 23.76961,21.1091 38.79092,13.97551 z m 217.04578,0.45308 c 1.91443,-1.04196 4.11155,-2.78031 4.8825,-3.863 3.07336,-4.31615 3.17421,-6.89838 3.05867,-78.31819 l -0.10998,-67.9831 -2.76772,-2.43035 c -4.15249,-3.64631 -7.84878,-5.09468 -13.04818,-5.11284 -7.39161,-0.0258 -12.7016,3.68334 -14.70061,10.26871 -0.71639,2.36 -0.91821,17.73044 -0.91821,69.93132 0,61.83932 0.0959,67.21645 1.26638,70.99943 0.90224,2.91606 1.90342,4.54658 3.48183,5.67051 5.50654,3.921 12.61021,4.23653 18.85532,0.83751 z M 178.36196,662.39801 c 10.57248,-3.15027 17.21421,-13.66717 16.42351,-26.00594 -0.49133,-7.6671 -2.76597,-13.17144 -7.32848,-17.73395 -11.27156,-11.27156 -30.9707,-8.08282 -38.94039,6.30335 -1.9951,3.60138 -2.11369,4.27981 -2.11312,12.08889 5.4e-4,7.44424 0.18983,8.66993 1.88877,12.23022 2.43033,5.093 6.35874,9.57487 10.54055,12.02557 5.28443,3.09688 11.61278,3.45069 19.52916,1.09186 z m 560.98762,-4.55042 c 4.37428,-2.11482 9.52073,-7.23139 11.60027,-11.53291 6.16127,-12.74452 1.70365,-28.94582 -9.8232,-35.70262 -2.9652,-1.73814 -4.23929,-1.99797 -10.91982,-2.22694 -4.29874,-0.14734 -8.88074,0.0956 -10.61618,0.56293 -4.22097,1.1366 -11.72394,8.24387 -14.35167,13.59479 -1.80327,3.67207 -2.00157,4.82423 -2.00157,11.62982 0,6.76165 0.20495,7.97128 1.95404,11.53268 2.79242,5.68578 6.48232,9.67198 10.99823,11.88142 6.93494,3.39295 16.4596,3.50022 23.1599,0.26083 z M 248.6508,628.7273 c 3.62267,-2.70472 5.97088,-6.3007 6.7307,-10.30721 0.44697,-2.35686 0.73361,-20.59656 0.73361,-46.68223 V 528.9239 l 6.01536,-6.23999 c 7.91904,-8.21474 9.30769,-11.56862 9.39214,-22.68391 0.0566,-7.45093 -0.0727,-8.19399 -2.21115,-12.7077 -1.52281,-3.21421 -4.07139,-6.67818 -7.73381,-10.51159 l -5.46254,-5.71757 v -57.85261 c 0,-57.90027 -0.3455,-67.64249 -2.55005,-71.90563 -0.96341,-1.86301 -10.18365,-10.3249 -19.48245,-17.88002 -3.428,-2.78519 -4.4561,-3.23072 -8.03555,-3.48223 -3.68365,-0.25884 -4.41733,-0.0606 -7.15378,1.93326 -6.22593,4.53633 -10.12099,13.23582 -8.88785,19.85071 0.91218,4.89313 2.91958,8.10607 8.4294,13.49167 l 5.30618,5.18657 v 55.69167 55.69166 l -4.91761,4.75339 c -8.03929,7.77082 -10.74477,15.88132 -9.38508,28.13468 1.10252,9.93568 5.02885,17.18532 11.53015,21.2894 l 2.77254,1.75023 0.006,40.09889 c 0.006,39.75726 0.51168,50.9977 2.46297,54.73221 1.24739,2.3873 4.41153,5.41783 7.24336,6.93748 3.18905,1.71135 12.51347,1.24679 15.19756,-0.75717 z m 417.18608,-0.63731 c 3.48417,-2.04185 6.09152,-5.13508 7.60758,-9.02524 0.78103,-2.0041 1.02886,-11.51543 1.21432,-46.60385 l 0.23303,-44.08586 5.28658,-5.20151 c 4.81632,-4.73884 5.43335,-5.68088 6.93655,-10.59041 2.28797,-7.47263 2.29616,-17.66704 0.0202,-25.09979 -1.46391,-4.78074 -2.17352,-5.87684 -6.97238,-10.76996 l -5.3426,-5.44753 v -55.34052 -55.34051 l 5.69644,-5.93354 c 3.13304,-3.26344 6.27594,-7.02092 6.98423,-8.34995 1.96331,-3.68396 1.73303,-10.13618 -0.53558,-15.00636 -4.50901,-9.67977 -11.93496,-13.72634 -19.01985,-10.36434 -2.89101,1.37187 -10.57819,7.86819 -19.20437,16.22934 l -6.29497,6.10154 v 64.52033 64.52033 l -4.24624,4.24624 c -7.65151,7.65151 -11.09842,18.2236 -9.46397,29.02714 1.02931,6.80374 4.01782,12.72966 9.33164,18.50374 l 4.28379,4.65481 0.22724,45.34519 c 0.22687,45.26918 0.22995,45.3506 1.83528,48.58259 1.63956,3.30087 4.89122,6.03894 8.57072,7.21699 3.39798,1.08792 9.35936,0.25818 12.85238,-1.78887 z M 178.47447,312.3433 c 10.28749,-4.23214 15.85094,-12.76147 16.03839,-24.58845 0.0819,-5.16498 -0.15565,-6.2723 -2.26402,-10.55518 -4.52055,-9.18291 -12.67511,-14.5507 -22.10496,-14.5507 -11.1136,0 -20.7596,7.77338 -23.79492,19.1755 -2.69556,10.1258 0.94468,21.67146 8.69715,27.58455 6.16103,4.69925 16.10936,5.94522 23.42836,2.93428 z m 561.70194,-1.12031 c 4.20412,-2.16508 8.7955,-6.88293 10.94042,-11.24175 1.54462,-3.13891 1.76087,-4.55023 1.76087,-11.49203 0,-7.19842 -0.18085,-8.28194 -2.00094,-11.98825 -6.182,-12.5886 -20.82264,-17.52295 -33.38169,-11.25066 -4.16124,2.07823 -8.50549,6.84356 -10.90485,11.96182 -1.63442,3.48654 -1.91151,5.0285 -1.89722,10.55766 0.0207,7.9926 1.94971,12.71833 7.67814,18.80967 5.61423,5.9699 7.92395,6.84956 17.12526,6.52219 6.05283,-0.21535 8.17518,-0.58868 10.68001,-1.87865 z"
       id="path3461" />
    <path
       style="fill:#343f45;fill-opacity:0.996078;stroke-width:0.719424"
       d="m 431.26308,502.57427 c -26.35795,-5.45482 -48.82469,-20.20264 -63.03717,-41.3794 -12.57522,-18.73724 -17.20561,-36.00778 -16.21403,-60.47545 0.62508,-15.4241 3.00554,-24.8483 9.63113,-38.12949 4.51138,-9.04321 10.17897,-16.71713 18.57315,-25.14804 15.75712,-15.82606 29.67237,-23.52513 50.28452,-27.82154 9.35627,-1.95022 25.11801,-2.12696 34.76807,-0.38986 13.69749,2.46569 27.94513,8.13539 39.40751,15.6818 7.24542,4.77012 19.89362,17.29253 24.62414,24.37926 7.1774,10.75234 12.83061,24.01197 15.66133,36.73372 1.87239,8.4148 2.25581,26.9519 0.74444,35.99061 -5.09128,30.448 -25.63988,58.12898 -53.61984,72.23114 -12.98395,6.54404 -23.91359,9.02721 -41.36691,9.39841 -10.63615,0.22621 -14.11207,0.0348 -19.45634,-1.07116 z m 33.16086,-47.88467 c 16.23917,-5.44459 27.51475,-17.19369 32.8082,-34.186 1.41738,-4.54985 1.67208,-6.8618 1.62479,-14.7482 -0.0657,-10.95902 -1.66228,-16.99237 -6.81129,-25.73961 -3.88062,-6.59246 -13.2522,-15.94585 -19.02406,-18.98711 -11.21082,-5.90713 -30.13135,-6.94132 -42.47803,-2.32183 -9.26769,3.46749 -21.31929,15.09081 -26.62113,25.67511 -2.38678,4.76482 -2.71481,6.122 -3.26658,13.51493 -0.33735,4.52002 -0.34043,11.8603 -0.007,16.31174 0.50336,6.71693 0.98688,8.93127 2.84277,13.01895 5.49896,12.11166 15.8391,22.53349 26.36436,26.57262 10.25093,3.93386 24.40145,4.29794 34.56782,0.8894 z"
       id="path3462" />
  </g>
  <path
     style="fill:#3eb7bd;fill-opacity:0.996078;stroke-width:0.719424"
     d="m 437.78117,455.28098 c -9.23664,-1.97899 -14.96334,-5.23368 -22.3443,-12.69907 -5.51392,-5.577 -7.15464,-7.80331 -10.05193,-13.63963 -3.13931,-6.32381 -3.5166,-7.63058 -4.04263,-14.00168 -0.80234,-9.71781 -0.0389,-21.96279 1.65577,-26.5563 3.91965,-10.6246 15.06106,-22.56423 26.38133,-28.27141 6.81798,-3.43733 19.72029,-4.51734 30.6669,-2.56702 8.96658,1.59754 15.38112,5.13989 22.6875,12.52888 11.70335,11.83566 16.69178,24.41922 15.57066,39.27777 -2.35065,31.15406 -30.34145,52.39504 -60.5233,45.92846 z"
     id="path3474" />
</svg>
